<svg xmlns="http://www.w3.org/2000/svg" width="48" height="48" fill="none" viewBox="0 0 48 48"><circle cx="24" cy="24" r="24" fill="url(#gradient1)"/><g><path fill="none" stroke="#fff" stroke-linecap="round" stroke-linejoin="round" stroke-width="2" d="M2 20V4L6 8L10 4V20" transform="translate(8, 12)"/><path fill="none" stroke="#fff" stroke-linecap="round" stroke-linejoin="round" stroke-width="2" d="M20 18C18 20 16 20 14 18V8C14 6 16 6 18 6C20 6 22 6 22 8" transform="translate(8, 12)"/><path fill="none" stroke="#fff" stroke-linecap="round" stroke-linejoin="round" stroke-width="2" d="M26 20V4H30C32 4 32 6 32 8C32 10 32 12 30 12H26" transform="translate(8, 12)"/></g><circle cx="24" cy="38" r="2" fill="#fff" opacity=".8"/><circle cx="12" cy="32" r="2" fill="#fff" opacity=".6"/><circle cx="36" cy="32" r="2" fill="#fff" opacity=".6"/><defs><linearGradient id="gradient1" x1="0%" x2="100%" y1="0%" y2="100%"><stop offset="0%" style="stop-color:#3b82f6;stop-opacity:1"/><stop offset="100%" style="stop-color:#1e40af;stop-opacity:1"/></linearGradient></defs></svg>